<svg xmlns="http://www.w3.org/2000/svg" xmlns:xlink="http://www.w3.org/1999/xlink" width="500" zoomAndPan="magnify" viewBox="0 0 375 374.999991" height="500" preserveAspectRatio="xMidYMid meet" version="1.0"><defs><g/><clipPath id="a0273d02f9"><rect x="0" width="154" y="0" height="93"/></clipPath><clipPath id="52641b20a7"><path d="M 72 125 L 117 125 L 117 152 L 72 152 Z M 72 125 " clip-rule="nonzero"/></clipPath><clipPath id="843ec87dba"><path d="M 141.984375 153.363281 L 105.140625 216.964844 L 46.085938 182.753906 L 82.925781 119.15625 Z M 141.984375 153.363281 " clip-rule="nonzero"/></clipPath><clipPath id="cc48bb8eb5"><path d="M 141.984375 153.363281 L 105.140625 216.964844 L 46.085938 182.753906 L 82.925781 119.15625 Z M 141.984375 153.363281 " clip-rule="nonzero"/></clipPath><clipPath id="fdaca28baa"><path d="M 72 138 L 95 138 L 95 211 L 72 211 Z M 72 138 " clip-rule="nonzero"/></clipPath><clipPath id="0147e9d38e"><path d="M 141.984375 153.363281 L 105.140625 216.964844 L 46.085938 182.753906 L 82.925781 119.15625 Z M 141.984375 153.363281 " clip-rule="nonzero"/></clipPath><clipPath id="9f4e842c6e"><path d="M 141.984375 153.363281 L 105.140625 216.964844 L 46.085938 182.753906 L 82.925781 119.15625 Z M 141.984375 153.363281 " clip-rule="nonzero"/></clipPath><clipPath id="6f35d5d258"><path d="M 119.835938 166.164062 L 94.117188 210.5625 L 46.328125 182.878906 L 72.046875 138.480469 Z M 119.835938 166.164062 " clip-rule="nonzero"/></clipPath><clipPath id="5c40df0845"><path d="M 94 138 L 117 138 L 117 211 L 94 211 Z M 94 138 " clip-rule="nonzero"/></clipPath><clipPath id="e5b2911570"><path d="M 141.984375 153.363281 L 105.140625 216.964844 L 46.085938 182.753906 L 82.925781 119.15625 Z M 141.984375 153.363281 " clip-rule="nonzero"/></clipPath><clipPath id="ad2e0834d7"><path d="M 141.984375 153.363281 L 105.140625 216.964844 L 46.085938 182.753906 L 82.925781 119.15625 Z M 141.984375 153.363281 " clip-rule="nonzero"/></clipPath><clipPath id="84bbcecc09"><path d="M 141.980469 153.363281 L 105.144531 216.949219 L 68.3125 195.613281 L 105.148438 132.027344 Z M 141.980469 153.363281 " clip-rule="nonzero"/></clipPath><clipPath id="09c8388246"><path d="M 46 140 L 92 140 L 92 166 L 46 166 Z M 46 140 " clip-rule="nonzero"/></clipPath><clipPath id="89f0adb89f"><path d="M 116.914062 168.070312 L 80.070312 231.667969 L 21.015625 197.457031 L 57.855469 133.859375 Z M 116.914062 168.070312 " clip-rule="nonzero"/></clipPath><clipPath id="fa9ea3be65"><path d="M 116.914062 168.070312 L 80.070312 231.667969 L 21.015625 197.457031 L 57.855469 133.859375 Z M 116.914062 168.070312 " clip-rule="nonzero"/></clipPath><clipPath id="c5aeaff767"><path d="M 46 153 L 70 153 L 70 226 L 46 226 Z M 46 153 " clip-rule="nonzero"/></clipPath><clipPath id="d693a60136"><path d="M 116.914062 168.070312 L 80.070312 231.667969 L 21.015625 197.457031 L 57.855469 133.859375 Z M 116.914062 168.070312 " clip-rule="nonzero"/></clipPath><clipPath id="2d43d3d1ee"><path d="M 116.914062 168.070312 L 80.070312 231.667969 L 21.015625 197.457031 L 57.855469 133.859375 Z M 116.914062 168.070312 " clip-rule="nonzero"/></clipPath><clipPath id="97d1d1c629"><path d="M 94.765625 180.867188 L 69.046875 225.265625 L 21.257812 197.582031 L 46.976562 153.183594 Z M 94.765625 180.867188 " clip-rule="nonzero"/></clipPath><clipPath id="77fdc5d316"><path d="M 69 153 L 92 153 L 92 226 L 69 226 Z M 69 153 " clip-rule="nonzero"/></clipPath><clipPath id="f7b833248f"><path d="M 116.914062 168.070312 L 80.070312 231.667969 L 21.015625 197.457031 L 57.855469 133.859375 Z M 116.914062 168.070312 " clip-rule="nonzero"/></clipPath><clipPath id="28fc49196d"><path d="M 116.914062 168.070312 L 80.070312 231.667969 L 21.015625 197.457031 L 57.855469 133.859375 Z M 116.914062 168.070312 " clip-rule="nonzero"/></clipPath><clipPath id="a5bcc529f3"><path d="M 116.910156 168.066406 L 80.078125 231.65625 L 43.242188 210.316406 L 80.078125 146.730469 Z M 116.910156 168.066406 " clip-rule="nonzero"/></clipPath><clipPath id="2e680fa433"><path d="M 21 155 L 67 155 L 67 181 L 21 181 Z M 21 155 " clip-rule="nonzero"/></clipPath><clipPath id="f4fa46dd23"><path d="M 91.910156 182.746094 L 55.066406 246.347656 L -3.988281 212.136719 L 32.851562 148.535156 Z M 91.910156 182.746094 " clip-rule="nonzero"/></clipPath><clipPath id="4c5443551e"><path d="M 91.910156 182.746094 L 55.066406 246.347656 L -3.988281 212.136719 L 32.851562 148.535156 Z M 91.910156 182.746094 " clip-rule="nonzero"/></clipPath><clipPath id="419e66f334"><path d="M 21 167 L 45 167 L 45 240 L 21 240 Z M 21 167 " clip-rule="nonzero"/></clipPath><clipPath id="1a4df2cde9"><path d="M 91.910156 182.746094 L 55.066406 246.347656 L -3.988281 212.136719 L 32.851562 148.535156 Z M 91.910156 182.746094 " clip-rule="nonzero"/></clipPath><clipPath id="aa5a3a9653"><path d="M 91.910156 182.746094 L 55.066406 246.347656 L -3.988281 212.136719 L 32.851562 148.535156 Z M 91.910156 182.746094 " clip-rule="nonzero"/></clipPath><clipPath id="dd4d59c9ae"><path d="M 69.761719 195.546875 L 44.042969 239.945312 L -3.746094 212.261719 L 21.972656 167.863281 Z M 69.761719 195.546875 " clip-rule="nonzero"/></clipPath><clipPath id="4c55a16abe"><path d="M 44 167 L 67 167 L 67 240 L 44 240 Z M 44 167 " clip-rule="nonzero"/></clipPath><clipPath id="e3f31661fd"><path d="M 91.910156 182.746094 L 55.066406 246.347656 L -3.988281 212.136719 L 32.851562 148.535156 Z M 91.910156 182.746094 " clip-rule="nonzero"/></clipPath><clipPath id="3afd4dcedf"><path d="M 91.910156 182.746094 L 55.066406 246.347656 L -3.988281 212.136719 L 32.851562 148.535156 Z M 91.910156 182.746094 " clip-rule="nonzero"/></clipPath><clipPath id="83af9aeba0"><path d="M 91.90625 182.746094 L 55.070312 246.332031 L 18.238281 224.996094 L 55.070312 161.40625 Z M 91.90625 182.746094 " clip-rule="nonzero"/></clipPath><clipPath id="7911e85726"><rect x="0" width="230" y="0" height="61"/></clipPath></defs><g transform="matrix(1, 0, 0, 1, 130, 130)"><g clip-path="url(#a0273d02f9)"><g fill="#ffffff" fill-opacity="1"><g transform="translate(0.596427, 65.692539)"><g><path d="M 36.984375 -12.59375 C 39.109375 -12.59375 41.171875 -12.914062 43.171875 -13.5625 C 45.171875 -14.207031 46.640625 -14.828125 47.578125 -15.421875 L 48.984375 -16.375 L 54.921875 -4.515625 C 54.722656 -4.367188 54.445312 -4.171875 54.09375 -3.921875 C 53.75 -3.679688 52.945312 -3.226562 51.6875 -2.5625 C 50.425781 -1.894531 49.078125 -1.3125 47.640625 -0.8125 C 46.210938 -0.320312 44.335938 0.117188 42.015625 0.515625 C 39.691406 0.910156 37.296875 1.109375 34.828125 1.109375 C 29.148438 1.109375 23.765625 -0.285156 18.671875 -3.078125 C 13.585938 -5.867188 9.488281 -9.707031 6.375 -14.59375 C 3.257812 -19.488281 1.703125 -24.773438 1.703125 -30.453125 C 1.703125 -34.753906 2.613281 -38.878906 4.4375 -42.828125 C 6.269531 -46.785156 8.703125 -50.171875 11.734375 -52.984375 C 14.773438 -55.804688 18.320312 -58.054688 22.375 -59.734375 C 26.425781 -61.410156 30.578125 -62.25 34.828125 -62.25 C 38.785156 -62.25 42.429688 -61.78125 45.765625 -60.84375 C 49.097656 -59.90625 51.457031 -58.96875 52.84375 -58.03125 L 54.921875 -56.625 L 48.984375 -44.765625 C 48.640625 -45.054688 48.117188 -45.410156 47.421875 -45.828125 C 46.734375 -46.253906 45.351562 -46.8125 43.28125 -47.5 C 41.207031 -48.195312 39.109375 -48.546875 36.984375 -48.546875 C 33.617188 -48.546875 30.601562 -48 27.9375 -46.90625 C 25.269531 -45.820312 23.15625 -44.390625 21.59375 -42.609375 C 20.039062 -40.828125 18.859375 -38.910156 18.046875 -36.859375 C 17.234375 -34.816406 16.828125 -32.734375 16.828125 -30.609375 C 16.828125 -25.960938 18.566406 -21.796875 22.046875 -18.109375 C 25.523438 -14.429688 30.503906 -12.59375 36.984375 -12.59375 Z M 36.984375 -12.59375 "/></g></g></g><g fill="#ffffff" fill-opacity="1"><g transform="translate(52.687124, 65.692539)"><g><path d="M 39.421875 -61.140625 L 39.421875 -48.90625 L 18.375 -48.90625 L 18.375 -36.765625 L 38.53125 -36.765625 L 38.53125 -24.53125 L 18.375 -24.53125 L 18.375 -12.234375 L 39.421875 -12.234375 L 39.421875 0 L 4.453125 0 L 4.453125 -61.140625 Z M 39.421875 -61.140625 "/></g></g></g><g fill="#ffffff" fill-opacity="1"><g transform="translate(91.958732, 65.692539)"><g><path d="M 35.5 -61.140625 L 60.171875 0 L 45.203125 0 L 40.6875 -12.234375 L 17.421875 -12.234375 L 12.890625 0 L -2.078125 0 L 22.609375 -61.140625 Z M 35.9375 -24.453125 L 29.125 -42.25 L 28.984375 -42.25 L 22.15625 -24.453125 Z M 35.9375 -24.453125 "/></g></g></g></g></g><g clip-path="url(#52641b20a7)"><g clip-path="url(#843ec87dba)"><g clip-path="url(#cc48bb8eb5)"><path fill="#ff914d" d="M 72.054688 138.511719 L 94.273438 125.726562 L 116.292969 138.527344 L 94.097656 151.277344 L 72.054688 138.511719 " fill-opacity="1" fill-rule="nonzero"/></g></g></g><g clip-path="url(#fdaca28baa)"><g clip-path="url(#0147e9d38e)"><g clip-path="url(#9f4e842c6e)"><g clip-path="url(#6f35d5d258)"><path fill="#7a2f00" d="M 72.015625 197.757812 L 72.046875 138.484375 L 94.085938 151.25 L 94.101562 210.554688 L 72.015625 197.757812 " fill-opacity="1" fill-rule="nonzero"/></g></g></g></g><g clip-path="url(#5c40df0845)"><g clip-path="url(#e5b2911570)"><g clip-path="url(#ad2e0834d7)"><g clip-path="url(#84bbcecc09)"><path fill="#ff751f" d="M 94.082031 151.292969 L 116.242188 138.523438 L 116.300781 197.695312 L 94.101562 210.554688 L 94.082031 151.292969 " fill-opacity="1" fill-rule="nonzero"/></g></g></g></g><g clip-path="url(#09c8388246)"><g clip-path="url(#89f0adb89f)"><g clip-path="url(#fa9ea3be65)"><path fill="#ff914d" d="M 46.984375 153.214844 L 69.203125 140.429688 L 91.222656 153.234375 L 69.027344 165.980469 L 46.984375 153.214844 " fill-opacity="1" fill-rule="nonzero"/></g></g></g><g clip-path="url(#c5aeaff767)"><g clip-path="url(#d693a60136)"><g clip-path="url(#2d43d3d1ee)"><g clip-path="url(#97d1d1c629)"><path fill="#7a2f00" d="M 46.945312 212.460938 L 46.976562 153.1875 L 69.015625 165.957031 L 69.03125 225.257812 L 46.945312 212.460938 " fill-opacity="1" fill-rule="nonzero"/></g></g></g></g><g clip-path="url(#77fdc5d316)"><g clip-path="url(#f7b833248f)"><g clip-path="url(#28fc49196d)"><g clip-path="url(#a5bcc529f3)"><path fill="#ff751f" d="M 69.011719 165.996094 L 91.171875 153.226562 L 91.230469 212.398438 L 69.03125 225.257812 L 69.011719 165.996094 " fill-opacity="1" fill-rule="nonzero"/></g></g></g></g><g clip-path="url(#2e680fa433)"><g clip-path="url(#f4fa46dd23)"><g clip-path="url(#4c5443551e)"><path fill="#ff914d" d="M 21.980469 167.890625 L 44.195312 155.109375 L 66.21875 167.910156 L 44.023438 180.660156 L 21.980469 167.890625 " fill-opacity="1" fill-rule="nonzero"/></g></g></g><g clip-path="url(#419e66f334)"><g clip-path="url(#1a4df2cde9)"><g clip-path="url(#aa5a3a9653)"><g clip-path="url(#dd4d59c9ae)"><path fill="#7a2f00" d="M 21.941406 227.140625 L 21.972656 167.867188 L 44.011719 180.632812 L 44.027344 239.933594 L 21.941406 227.140625 " fill-opacity="1" fill-rule="nonzero"/></g></g></g></g><g clip-path="url(#4c55a16abe)"><g clip-path="url(#e3f31661fd)"><g clip-path="url(#3afd4dcedf)"><g clip-path="url(#83af9aeba0)"><path fill="#ff751f" d="M 44.007812 180.671875 L 66.167969 167.902344 L 66.226562 227.078125 L 44.027344 239.933594 L 44.007812 180.671875 " fill-opacity="1" fill-rule="nonzero"/></g></g></g></g><g transform="matrix(1, 0, 0, 1, 131, 197)"><g clip-path="url(#7911e85726)"><g fill="#d9d9d9" fill-opacity="1"><g transform="translate(0.756978, 41.991896)"><g><path d="M 3.6875 -38.234375 C 4.675781 -39.222656 5.851562 -39.71875 7.21875 -39.71875 C 8.59375 -39.71875 9.773438 -39.222656 10.765625 -38.234375 C 11.753906 -37.242188 12.25 -36.0625 12.25 -34.6875 C 12.25 -33.320312 11.753906 -32.144531 10.765625 -31.15625 C 9.773438 -30.164062 8.59375 -29.671875 7.21875 -29.671875 C 5.851562 -29.671875 4.675781 -30.164062 3.6875 -31.15625 C 2.695312 -32.144531 2.203125 -33.320312 2.203125 -34.6875 C 2.203125 -36.0625 2.695312 -37.242188 3.6875 -38.234375 Z M 2.875 -24.546875 L 2.875 0 L 11.34375 0 L 11.34375 -24.546875 Z M 2.875 -24.546875 "/></g></g></g><g fill="#d9d9d9" fill-opacity="1"><g transform="translate(12.812619, 41.991896)"><g><path d="M 2.875 0 L 2.875 -24.546875 L 11.34375 -24.546875 L 11.34375 -21.96875 L 11.4375 -21.96875 C 13.632812 -24.164062 15.976562 -25.265625 18.46875 -25.265625 C 19.6875 -25.265625 20.890625 -25.101562 22.078125 -24.78125 C 23.273438 -24.46875 24.425781 -23.972656 25.53125 -23.296875 C 26.632812 -22.628906 27.523438 -21.679688 28.203125 -20.453125 C 28.890625 -19.234375 29.234375 -17.804688 29.234375 -16.171875 L 29.234375 0 L 20.765625 0 L 20.765625 -13.875 C 20.765625 -15.15625 20.359375 -16.273438 19.546875 -17.234375 C 18.734375 -18.191406 17.675781 -18.671875 16.375 -18.671875 C 15.09375 -18.671875 13.929688 -18.175781 12.890625 -17.1875 C 11.859375 -16.195312 11.34375 -15.09375 11.34375 -13.875 L 11.34375 0 Z M 2.875 0 "/></g></g></g><g fill="#d9d9d9" fill-opacity="1"><g transform="translate(42.044337, 41.991896)"><g><path d="M 1.765625 6.03125 L 8.703125 2.625 C 9.984375 4.738281 12.203125 5.796875 15.359375 5.796875 C 16.828125 5.796875 18.191406 5.320312 19.453125 4.375 C 20.710938 3.4375 21.34375 1.992188 21.34375 0.046875 L 21.34375 -1.765625 C 19.84375 -0.109375 17.164062 0.71875 13.3125 0.71875 C 9.769531 0.71875 6.847656 -0.53125 4.546875 -3.03125 C 2.242188 -5.539062 1.09375 -8.613281 1.09375 -12.25 C 1.09375 -15.882812 2.242188 -18.960938 4.546875 -21.484375 C 6.847656 -24.003906 9.769531 -25.265625 13.3125 -25.265625 C 16.46875 -25.265625 19.097656 -24.289062 21.203125 -22.34375 L 21.34375 -22.34375 L 21.34375 -24.546875 L 29.8125 -24.546875 L 29.8125 0.671875 C 29.8125 4.660156 28.488281 7.738281 25.84375 9.90625 C 23.195312 12.070312 19.703125 13.15625 15.359375 13.15625 C 8.335938 13.15625 3.804688 10.78125 1.765625 6.03125 Z M 11.75 -16.40625 C 10.644531 -15.320312 10.09375 -13.9375 10.09375 -12.25 C 10.09375 -10.5625 10.617188 -9.179688 11.671875 -8.109375 C 12.722656 -7.046875 14.113281 -6.515625 15.84375 -6.515625 C 17.5 -6.515625 18.859375 -7.054688 19.921875 -8.140625 C 20.992188 -9.222656 21.53125 -10.59375 21.53125 -12.25 C 21.53125 -13.9375 20.976562 -15.320312 19.875 -16.40625 C 18.78125 -17.5 17.4375 -18.046875 15.84375 -18.046875 C 14.21875 -18.046875 12.851562 -17.5 11.75 -16.40625 Z M 11.75 -16.40625 "/></g></g></g><g fill="#d9d9d9" fill-opacity="1"><g transform="translate(72.328646, 41.991896)"><g><path d="M 11.625 -31.78125 L 21.34375 -40.203125 L 25.703125 -34.703125 L 14.3125 -28.09375 Z M 27.703125 -11.109375 L 9.90625 -11.109375 C 9.90625 -9.378906 10.460938 -8.097656 11.578125 -7.265625 C 12.691406 -6.441406 13.90625 -6.03125 15.21875 -6.03125 C 16.59375 -6.03125 17.675781 -6.210938 18.46875 -6.578125 C 19.269531 -6.941406 20.179688 -7.671875 21.203125 -8.765625 L 27.328125 -5.6875 C 24.773438 -1.414062 20.53125 0.71875 14.59375 0.71875 C 10.894531 0.71875 7.71875 -0.546875 5.0625 -3.078125 C 2.414062 -5.617188 1.09375 -8.675781 1.09375 -12.25 C 1.09375 -15.820312 2.414062 -18.882812 5.0625 -21.4375 C 7.71875 -23.988281 10.894531 -25.265625 14.59375 -25.265625 C 18.488281 -25.265625 21.65625 -24.140625 24.09375 -21.890625 C 26.539062 -19.640625 27.765625 -16.425781 27.765625 -12.25 C 27.765625 -11.675781 27.742188 -11.296875 27.703125 -11.109375 Z M 10.140625 -15.796875 L 19.484375 -15.796875 C 19.285156 -17.066406 18.78125 -18.046875 17.96875 -18.734375 C 17.15625 -19.421875 16.113281 -19.765625 14.84375 -19.765625 C 13.4375 -19.765625 12.316406 -19.394531 11.484375 -18.65625 C 10.648438 -17.925781 10.203125 -16.972656 10.140625 -15.796875 Z M 10.140625 -15.796875 "/></g></g></g><g fill="#d9d9d9" fill-opacity="1"><g transform="translate(98.785414, 41.991896)"><g><path d="M 2.875 0 L 2.875 -24.546875 L 11.34375 -24.546875 L 11.34375 -21.96875 L 11.4375 -21.96875 C 13.632812 -24.164062 15.976562 -25.265625 18.46875 -25.265625 C 19.6875 -25.265625 20.890625 -25.101562 22.078125 -24.78125 C 23.273438 -24.46875 24.425781 -23.972656 25.53125 -23.296875 C 26.632812 -22.628906 27.523438 -21.679688 28.203125 -20.453125 C 28.890625 -19.234375 29.234375 -17.804688 29.234375 -16.171875 L 29.234375 0 L 20.765625 0 L 20.765625 -13.875 C 20.765625 -15.15625 20.359375 -16.273438 19.546875 -17.234375 C 18.734375 -18.191406 17.675781 -18.671875 16.375 -18.671875 C 15.09375 -18.671875 13.929688 -18.175781 12.890625 -17.1875 C 11.859375 -16.195312 11.34375 -15.09375 11.34375 -13.875 L 11.34375 0 Z M 2.875 0 "/></g></g></g><g fill="#d9d9d9" fill-opacity="1"><g transform="translate(128.017133, 41.991896)"><g><path d="M 3.6875 -38.234375 C 4.675781 -39.222656 5.851562 -39.71875 7.21875 -39.71875 C 8.59375 -39.71875 9.773438 -39.222656 10.765625 -38.234375 C 11.753906 -37.242188 12.25 -36.0625 12.25 -34.6875 C 12.25 -33.320312 11.753906 -32.144531 10.765625 -31.15625 C 9.773438 -30.164062 8.59375 -29.671875 7.21875 -29.671875 C 5.851562 -29.671875 4.675781 -30.164062 3.6875 -31.15625 C 2.695312 -32.144531 2.203125 -33.320312 2.203125 -34.6875 C 2.203125 -36.0625 2.695312 -37.242188 3.6875 -38.234375 Z M 2.875 -24.546875 L 2.875 0 L 11.34375 0 L 11.34375 -24.546875 Z M 2.875 -24.546875 "/></g></g></g><g fill="#d9d9d9" fill-opacity="1"><g transform="translate(140.072773, 41.991896)"><g><path d="M 27.703125 -11.109375 L 9.90625 -11.109375 C 9.90625 -9.378906 10.460938 -8.097656 11.578125 -7.265625 C 12.691406 -6.441406 13.90625 -6.03125 15.21875 -6.03125 C 16.59375 -6.03125 17.675781 -6.210938 18.46875 -6.578125 C 19.269531 -6.941406 20.179688 -7.671875 21.203125 -8.765625 L 27.328125 -5.6875 C 24.773438 -1.414062 20.53125 0.71875 14.59375 0.71875 C 10.894531 0.71875 7.71875 -0.546875 5.0625 -3.078125 C 2.414062 -5.617188 1.09375 -8.675781 1.09375 -12.25 C 1.09375 -15.820312 2.414062 -18.882812 5.0625 -21.4375 C 7.71875 -23.988281 10.894531 -25.265625 14.59375 -25.265625 C 18.488281 -25.265625 21.65625 -24.140625 24.09375 -21.890625 C 26.539062 -19.640625 27.765625 -16.425781 27.765625 -12.25 C 27.765625 -11.675781 27.742188 -11.296875 27.703125 -11.109375 Z M 10.140625 -15.796875 L 19.484375 -15.796875 C 19.285156 -17.066406 18.78125 -18.046875 17.96875 -18.734375 C 17.15625 -19.421875 16.113281 -19.765625 14.84375 -19.765625 C 13.4375 -19.765625 12.316406 -19.394531 11.484375 -18.65625 C 10.648438 -17.925781 10.203125 -16.972656 10.140625 -15.796875 Z M 10.140625 -15.796875 "/></g></g></g><g fill="#d9d9d9" fill-opacity="1"><g transform="translate(166.529542, 41.991896)"><g><path d="M 2.875 0 L 2.875 -24.546875 L 11.34375 -24.546875 L 11.34375 -21.015625 L 11.4375 -21.015625 C 11.5 -21.140625 11.601562 -21.296875 11.75 -21.484375 C 11.894531 -21.679688 12.207031 -22.019531 12.6875 -22.5 C 13.164062 -22.976562 13.675781 -23.40625 14.21875 -23.78125 C 14.757812 -24.164062 15.457031 -24.507812 16.3125 -24.8125 C 17.175781 -25.113281 18.054688 -25.265625 18.953125 -25.265625 C 19.878906 -25.265625 20.785156 -25.132812 21.671875 -24.875 C 22.566406 -24.625 23.222656 -24.375 23.640625 -24.125 L 24.3125 -23.734375 L 20.765625 -16.5625 C 19.710938 -17.457031 18.25 -17.90625 16.375 -17.90625 C 15.351562 -17.90625 14.472656 -17.679688 13.734375 -17.234375 C 13.003906 -16.785156 12.484375 -16.238281 12.171875 -15.59375 C 11.867188 -14.957031 11.65625 -14.414062 11.53125 -13.96875 C 11.40625 -13.53125 11.34375 -13.179688 11.34375 -12.921875 L 11.34375 0 Z M 2.875 0 "/></g></g></g><g fill="#d9d9d9" fill-opacity="1"><g transform="translate(187.96265, 41.991896)"><g><path d="M 3.6875 -38.234375 C 4.675781 -39.222656 5.851562 -39.71875 7.21875 -39.71875 C 8.59375 -39.71875 9.773438 -39.222656 10.765625 -38.234375 C 11.753906 -37.242188 12.25 -36.0625 12.25 -34.6875 C 12.25 -33.320312 11.753906 -32.144531 10.765625 -31.15625 C 9.773438 -30.164062 8.59375 -29.671875 7.21875 -29.671875 C 5.851562 -29.671875 4.675781 -30.164062 3.6875 -31.15625 C 2.695312 -32.144531 2.203125 -33.320312 2.203125 -34.6875 C 2.203125 -36.0625 2.695312 -37.242188 3.6875 -38.234375 Z M 2.875 -24.546875 L 2.875 0 L 11.34375 0 L 11.34375 -24.546875 Z M 2.875 -24.546875 "/></g></g></g><g fill="#d9d9d9" fill-opacity="1"><g transform="translate(200.018291, 41.991896)"><g><path d="M 27.703125 -11.109375 L 9.90625 -11.109375 C 9.90625 -9.378906 10.460938 -8.097656 11.578125 -7.265625 C 12.691406 -6.441406 13.90625 -6.03125 15.21875 -6.03125 C 16.59375 -6.03125 17.675781 -6.210938 18.46875 -6.578125 C 19.269531 -6.941406 20.179688 -7.671875 21.203125 -8.765625 L 27.328125 -5.6875 C 24.773438 -1.414062 20.53125 0.71875 14.59375 0.71875 C 10.894531 0.71875 7.71875 -0.546875 5.0625 -3.078125 C 2.414062 -5.617188 1.09375 -8.675781 1.09375 -12.25 C 1.09375 -15.820312 2.414062 -18.882812 5.0625 -21.4375 C 7.71875 -23.988281 10.894531 -25.265625 14.59375 -25.265625 C 18.488281 -25.265625 21.65625 -24.140625 24.09375 -21.890625 C 26.539062 -19.640625 27.765625 -16.425781 27.765625 -12.25 C 27.765625 -11.675781 27.742188 -11.296875 27.703125 -11.109375 Z M 10.140625 -15.796875 L 19.484375 -15.796875 C 19.285156 -17.066406 18.78125 -18.046875 17.96875 -18.734375 C 17.15625 -19.421875 16.113281 -19.765625 14.84375 -19.765625 C 13.4375 -19.765625 12.316406 -19.394531 11.484375 -18.65625 C 10.648438 -17.925781 10.203125 -16.972656 10.140625 -15.796875 Z M 10.140625 -15.796875 "/></g></g></g></g></g></svg>