<svg xmlns="http://www.w3.org/2000/svg" xmlns:xlink="http://www.w3.org/1999/xlink" width="500" zoomAndPan="magnify" viewBox="0 0 375 374.999991" height="500" preserveAspectRatio="xMidYMid meet" version="1.0"><defs><g/><clipPath id="3a608361db"><rect x="0" width="182" y="0" height="111"/></clipPath><clipPath id="0522b40a08"><path d="M 190 50 L 241 50 L 241 80 L 190 80 Z M 190 50 " clip-rule="nonzero"/></clipPath><clipPath id="8152fe57fc"><path d="M 269.351562 82.265625 L 227.621094 154.300781 L 160.777344 115.578125 L 202.507812 43.542969 Z M 269.351562 82.265625 " clip-rule="nonzero"/></clipPath><clipPath id="d296a7a53e"><path d="M 269.351562 82.265625 L 227.621094 154.300781 L 160.777344 115.578125 L 202.507812 43.542969 Z M 269.351562 82.265625 " clip-rule="nonzero"/></clipPath><clipPath id="eabc438660"><path d="M 190 65 L 216 65 L 216 147 L 190 147 Z M 190 65 " clip-rule="nonzero"/></clipPath><clipPath id="f703294487"><path d="M 269.351562 82.265625 L 227.621094 154.300781 L 160.777344 115.578125 L 202.507812 43.542969 Z M 269.351562 82.265625 " clip-rule="nonzero"/></clipPath><clipPath id="e9cf608ded"><path d="M 269.351562 82.265625 L 227.621094 154.300781 L 160.777344 115.578125 L 202.507812 43.542969 Z M 269.351562 82.265625 " clip-rule="nonzero"/></clipPath><clipPath id="d5daf032ce"><path d="M 244.28125 96.753906 L 215.171875 147.003906 L 161.078125 115.671875 L 190.191406 65.417969 Z M 244.28125 96.753906 " clip-rule="nonzero"/></clipPath><clipPath id="cdd32d469d"><path d="M 215 65 L 241 65 L 241 147 L 215 147 Z M 215 65 " clip-rule="nonzero"/></clipPath><clipPath id="49215ff63e"><path d="M 269.351562 82.265625 L 227.621094 154.300781 L 160.777344 115.578125 L 202.507812 43.542969 Z M 269.351562 82.265625 " clip-rule="nonzero"/></clipPath><clipPath id="d5f330d0a2"><path d="M 269.351562 82.265625 L 227.621094 154.300781 L 160.777344 115.578125 L 202.507812 43.542969 Z M 269.351562 82.265625 " clip-rule="nonzero"/></clipPath><clipPath id="9f19a711f0"><path d="M 269.347656 82.261719 L 227.65625 154.238281 L 185.960938 130.085938 L 227.65625 58.113281 Z M 269.347656 82.261719 " clip-rule="nonzero"/></clipPath><clipPath id="105b1ee519"><path d="M 161 67 L 212 67 L 212 97 L 161 97 Z M 161 67 " clip-rule="nonzero"/></clipPath><clipPath id="73588fdee7"><path d="M 240.976562 98.90625 L 199.246094 170.945312 L 132.402344 132.222656 L 174.128906 60.1875 Z M 240.976562 98.90625 " clip-rule="nonzero"/></clipPath><clipPath id="0dfe7a6fa5"><path d="M 240.976562 98.90625 L 199.246094 170.945312 L 132.402344 132.222656 L 174.128906 60.1875 Z M 240.976562 98.90625 " clip-rule="nonzero"/></clipPath><clipPath id="d4cec706bb"><path d="M 161 82 L 187 82 L 187 164 L 161 164 Z M 161 82 " clip-rule="nonzero"/></clipPath><clipPath id="c85b182cb9"><path d="M 240.976562 98.90625 L 199.246094 170.945312 L 132.402344 132.222656 L 174.128906 60.1875 Z M 240.976562 98.90625 " clip-rule="nonzero"/></clipPath><clipPath id="d8b95b2abe"><path d="M 240.976562 98.90625 L 199.246094 170.945312 L 132.402344 132.222656 L 174.128906 60.1875 Z M 240.976562 98.90625 " clip-rule="nonzero"/></clipPath><clipPath id="7dabbe0bab"><path d="M 215.90625 113.394531 L 186.796875 163.648438 L 132.703125 132.3125 L 161.816406 82.0625 Z M 215.90625 113.394531 " clip-rule="nonzero"/></clipPath><clipPath id="374f040550"><path d="M 186 82 L 212 82 L 212 164 L 186 164 Z M 186 82 " clip-rule="nonzero"/></clipPath><clipPath id="4ad44f86f3"><path d="M 240.976562 98.90625 L 199.246094 170.945312 L 132.402344 132.222656 L 174.128906 60.1875 Z M 240.976562 98.90625 " clip-rule="nonzero"/></clipPath><clipPath id="f03bd3c90a"><path d="M 240.976562 98.90625 L 199.246094 170.945312 L 132.402344 132.222656 L 174.128906 60.1875 Z M 240.976562 98.90625 " clip-rule="nonzero"/></clipPath><clipPath id="61c59f8906"><path d="M 240.972656 98.90625 L 199.28125 170.878906 L 157.585938 146.726562 L 199.28125 74.753906 Z M 240.972656 98.90625 " clip-rule="nonzero"/></clipPath><clipPath id="4e49fd031c"><path d="M 133 84 L 184 84 L 184 114 L 133 114 Z M 133 84 " clip-rule="nonzero"/></clipPath><clipPath id="b73b054a3b"><path d="M 212.675781 115.519531 L 170.945312 187.558594 L 104.101562 148.835938 L 145.828125 76.800781 Z M 212.675781 115.519531 " clip-rule="nonzero"/></clipPath><clipPath id="04ce6867de"><path d="M 212.675781 115.519531 L 170.945312 187.558594 L 104.101562 148.835938 L 145.828125 76.800781 Z M 212.675781 115.519531 " clip-rule="nonzero"/></clipPath><clipPath id="88d60df80c"><path d="M 133 98 L 159 98 L 159 181 L 133 181 Z M 133 98 " clip-rule="nonzero"/></clipPath><clipPath id="4707becca4"><path d="M 212.675781 115.519531 L 170.945312 187.558594 L 104.101562 148.835938 L 145.828125 76.800781 Z M 212.675781 115.519531 " clip-rule="nonzero"/></clipPath><clipPath id="22298a0769"><path d="M 212.675781 115.519531 L 170.945312 187.558594 L 104.101562 148.835938 L 145.828125 76.800781 Z M 212.675781 115.519531 " clip-rule="nonzero"/></clipPath><clipPath id="d80283e83c"><path d="M 187.605469 130.007812 L 158.496094 180.261719 L 104.402344 148.925781 L 133.515625 98.675781 Z M 187.605469 130.007812 " clip-rule="nonzero"/></clipPath><clipPath id="8ff6d77eb1"><path d="M 158 98 L 184 98 L 184 181 L 158 181 Z M 158 98 " clip-rule="nonzero"/></clipPath><clipPath id="5769033452"><path d="M 212.675781 115.519531 L 170.945312 187.558594 L 104.101562 148.835938 L 145.828125 76.800781 Z M 212.675781 115.519531 " clip-rule="nonzero"/></clipPath><clipPath id="c24fdfa417"><path d="M 212.675781 115.519531 L 170.945312 187.558594 L 104.101562 148.835938 L 145.828125 76.800781 Z M 212.675781 115.519531 " clip-rule="nonzero"/></clipPath><clipPath id="08dadfd194"><path d="M 212.671875 115.519531 L 170.976562 187.492188 L 129.285156 163.339844 L 170.976562 91.367188 Z M 212.671875 115.519531 " clip-rule="nonzero"/></clipPath><clipPath id="ba4c072301"><rect x="0" width="299" y="0" height="78"/></clipPath></defs><g transform="matrix(1, 0, 0, 1, 93, 184)"><g clip-path="url(#3a608361db)"><g fill="#000000" fill-opacity="1"><g transform="translate(0.16962, 78.73267)"><g><path d="M 44.015625 -15 C 46.546875 -15 49 -15.378906 51.375 -16.140625 C 53.757812 -16.910156 55.515625 -17.644531 56.640625 -18.34375 L 58.3125 -19.5 L 65.375 -5.375 C 65.132812 -5.195312 64.804688 -4.960938 64.390625 -4.671875 C 63.984375 -4.378906 63.03125 -3.835938 61.53125 -3.046875 C 60.03125 -2.253906 58.425781 -1.5625 56.71875 -0.96875 C 55.019531 -0.382812 52.785156 0.140625 50.015625 0.609375 C 47.253906 1.085938 44.40625 1.328125 41.46875 1.328125 C 34.695312 1.328125 28.28125 -0.332031 22.21875 -3.65625 C 16.164062 -6.976562 11.285156 -11.550781 7.578125 -17.375 C 3.878906 -23.195312 2.03125 -29.492188 2.03125 -36.265625 C 2.03125 -41.378906 3.117188 -46.285156 5.296875 -50.984375 C 7.472656 -55.691406 10.367188 -59.722656 13.984375 -63.078125 C 17.597656 -66.429688 21.816406 -69.109375 26.640625 -71.109375 C 31.460938 -73.109375 36.40625 -74.109375 41.46875 -74.109375 C 46.164062 -74.109375 50.5 -73.546875 54.46875 -72.421875 C 58.445312 -71.304688 61.257812 -70.191406 62.90625 -69.078125 L 65.375 -67.40625 L 58.3125 -53.28125 C 57.894531 -53.632812 57.273438 -54.0625 56.453125 -54.5625 C 55.628906 -55.0625 53.984375 -55.722656 51.515625 -56.546875 C 49.046875 -57.367188 46.546875 -57.78125 44.015625 -57.78125 C 40.015625 -57.78125 36.425781 -57.132812 33.25 -55.84375 C 30.082031 -54.550781 27.570312 -52.84375 25.71875 -50.71875 C 23.863281 -48.601562 22.453125 -46.328125 21.484375 -43.890625 C 20.515625 -41.453125 20.03125 -38.96875 20.03125 -36.4375 C 20.03125 -30.90625 22.101562 -25.945312 26.25 -21.5625 C 30.394531 -17.1875 36.316406 -15 44.015625 -15 Z M 44.015625 -15 "/></g></g></g><g fill="#000000" fill-opacity="1"><g transform="translate(62.176569, 78.73267)"><g><path d="M 46.9375 -72.78125 L 46.9375 -58.21875 L 21.875 -58.21875 L 21.875 -43.75 L 45.875 -43.75 L 45.875 -29.203125 L 21.875 -29.203125 L 21.875 -14.5625 L 46.9375 -14.5625 L 46.9375 0 L 5.296875 0 L 5.296875 -72.78125 Z M 46.9375 -72.78125 "/></g></g></g><g fill="#000000" fill-opacity="1"><g transform="translate(108.924121, 78.73267)"><g><path d="M 42.25 -72.78125 L 71.640625 0 L 53.8125 0 L 48.4375 -14.5625 L 20.734375 -14.5625 L 15.34375 0 L -2.46875 0 L 26.90625 -72.78125 Z M 42.78125 -29.109375 L 34.671875 -50.28125 L 34.5 -50.28125 L 26.375 -29.109375 Z M 42.78125 -29.109375 "/></g></g></g></g></g><g clip-path="url(#0522b40a08)"><g clip-path="url(#8152fe57fc)"><g clip-path="url(#d296a7a53e)"><path fill="#ff914d" d="M 190.199219 65.453125 L 215.347656 50.980469 L 240.269531 65.472656 L 215.148438 79.902344 L 190.199219 65.453125 " fill-opacity="1" fill-rule="nonzero"/></g></g></g><g clip-path="url(#eabc438660)"><g clip-path="url(#f703294487)"><g clip-path="url(#e9cf608ded)"><g clip-path="url(#d5daf032ce)"><path fill="#7a2f00" d="M 190.152344 132.511719 L 190.1875 65.421875 L 215.136719 79.871094 L 215.15625 146.996094 L 190.152344 132.511719 " fill-opacity="1" fill-rule="nonzero"/></g></g></g></g><g clip-path="url(#cdd32d469d)"><g clip-path="url(#49215ff63e)"><g clip-path="url(#d5f330d0a2)"><g clip-path="url(#9f19a711f0)"><path fill="#ff751f" d="M 215.128906 79.917969 L 240.214844 65.464844 L 240.28125 132.441406 L 215.15625 146.996094 L 215.128906 79.917969 " fill-opacity="1" fill-rule="nonzero"/></g></g></g></g><g clip-path="url(#105b1ee519)"><g clip-path="url(#73588fdee7)"><g clip-path="url(#0dfe7a6fa5)"><path fill="#ff914d" d="M 161.824219 82.09375 L 186.972656 67.625 L 211.894531 82.117188 L 186.773438 96.546875 L 161.824219 82.09375 " fill-opacity="1" fill-rule="nonzero"/></g></g></g><g clip-path="url(#d4cec706bb)"><g clip-path="url(#c85b182cb9)"><g clip-path="url(#d8b95b2abe)"><g clip-path="url(#7dabbe0bab)"><path fill="#7a2f00" d="M 161.777344 149.15625 L 161.8125 82.0625 L 186.761719 96.515625 L 186.777344 163.636719 L 161.777344 149.15625 " fill-opacity="1" fill-rule="nonzero"/></g></g></g></g><g clip-path="url(#374f040550)"><g clip-path="url(#4ad44f86f3)"><g clip-path="url(#f03bd3c90a)"><g clip-path="url(#61c59f8906)"><path fill="#ff751f" d="M 186.753906 96.5625 L 211.839844 82.109375 L 211.90625 149.085938 L 186.777344 163.636719 L 186.753906 96.5625 " fill-opacity="1" fill-rule="nonzero"/></g></g></g></g><g clip-path="url(#4e49fd031c)"><g clip-path="url(#b73b054a3b)"><g clip-path="url(#04ce6867de)"><path fill="#ff914d" d="M 133.523438 98.707031 L 158.667969 84.238281 L 183.59375 98.730469 L 158.472656 113.160156 L 133.523438 98.707031 " fill-opacity="1" fill-rule="nonzero"/></g></g></g><g clip-path="url(#88d60df80c)"><g clip-path="url(#4707becca4)"><g clip-path="url(#22298a0769)"><g clip-path="url(#d80283e83c)"><path fill="#7a2f00" d="M 133.476562 165.769531 L 133.511719 98.675781 L 158.460938 113.128906 L 158.476562 180.25 L 133.476562 165.769531 " fill-opacity="1" fill-rule="nonzero"/></g></g></g></g><g clip-path="url(#8ff6d77eb1)"><g clip-path="url(#5769033452)"><g clip-path="url(#c24fdfa417)"><g clip-path="url(#08dadfd194)"><path fill="#ff751f" d="M 158.453125 113.175781 L 183.535156 98.722656 L 183.601562 165.699219 L 158.476562 180.25 L 158.453125 113.175781 " fill-opacity="1" fill-rule="nonzero"/></g></g></g></g><g transform="matrix(1, 0, 0, 1, 37, 264)"><g clip-path="url(#ba4c072301)"><g fill="#737373" fill-opacity="1"><g transform="translate(0.500002, 54.109898)"><g><path d="M 4.796875 -49.828125 C 6.085938 -51.117188 7.625 -51.765625 9.40625 -51.765625 C 11.195312 -51.765625 12.738281 -51.117188 14.03125 -49.828125 C 15.320312 -48.535156 15.96875 -46.992188 15.96875 -45.203125 C 15.96875 -43.421875 15.320312 -41.882812 14.03125 -40.59375 C 12.738281 -39.300781 11.195312 -38.65625 9.40625 -38.65625 C 7.625 -38.65625 6.085938 -39.300781 4.796875 -40.59375 C 3.515625 -41.882812 2.875 -43.421875 2.875 -45.203125 C 2.875 -46.992188 3.515625 -48.535156 4.796875 -49.828125 Z M 3.734375 -31.984375 L 3.734375 0 L 14.78125 0 L 14.78125 -31.984375 Z M 3.734375 -31.984375 "/></g></g></g><g fill="#737373" fill-opacity="1"><g transform="translate(16.208881, 54.109898)"><g><path d="M 3.734375 0 L 3.734375 -31.984375 L 14.78125 -31.984375 L 14.78125 -28.625 L 14.90625 -28.625 C 17.769531 -31.488281 20.828125 -32.921875 24.078125 -32.921875 C 25.648438 -32.921875 27.21875 -32.710938 28.78125 -32.296875 C 30.34375 -31.878906 31.835938 -31.234375 33.265625 -30.359375 C 34.703125 -29.492188 35.863281 -28.257812 36.75 -26.65625 C 37.644531 -25.050781 38.09375 -23.191406 38.09375 -21.078125 L 38.09375 0 L 27.0625 0 L 27.0625 -18.078125 C 27.0625 -19.742188 26.53125 -21.195312 25.46875 -22.4375 C 24.414062 -23.6875 23.035156 -24.3125 21.328125 -24.3125 C 19.660156 -24.3125 18.148438 -23.664062 16.796875 -22.375 C 15.453125 -21.09375 14.78125 -19.660156 14.78125 -18.078125 L 14.78125 0 Z M 3.734375 0 "/></g></g></g><g fill="#737373" fill-opacity="1"><g transform="translate(54.298728, 54.109898)"><g><path d="M 2.3125 7.859375 L 11.34375 3.4375 C 13.007812 6.175781 15.898438 7.546875 20.015625 7.546875 C 21.929688 7.546875 23.707031 6.929688 25.34375 5.703125 C 26.988281 4.472656 27.8125 2.59375 27.8125 0.0625 L 27.8125 -2.3125 C 25.851562 -0.144531 22.359375 0.9375 17.328125 0.9375 C 12.710938 0.9375 8.910156 -0.691406 5.921875 -3.953125 C 2.929688 -7.222656 1.4375 -11.226562 1.4375 -15.96875 C 1.4375 -20.707031 2.929688 -24.71875 5.921875 -28 C 8.910156 -31.28125 12.710938 -32.921875 17.328125 -32.921875 C 21.453125 -32.921875 24.882812 -31.65625 27.625 -29.125 L 27.8125 -29.125 L 27.8125 -31.984375 L 38.84375 -31.984375 L 38.84375 0.875 C 38.84375 6.070312 37.117188 10.082031 33.671875 12.90625 C 30.222656 15.738281 25.671875 17.15625 20.015625 17.15625 C 10.867188 17.15625 4.96875 14.054688 2.3125 7.859375 Z M 15.296875 -21.390625 C 13.867188 -19.972656 13.15625 -18.160156 13.15625 -15.953125 C 13.15625 -13.753906 13.84375 -11.957031 15.21875 -10.5625 C 16.59375 -9.175781 18.398438 -8.484375 20.640625 -8.484375 C 22.804688 -8.484375 24.582031 -9.1875 25.96875 -10.59375 C 27.363281 -12.007812 28.0625 -13.800781 28.0625 -15.96875 C 28.0625 -18.164062 27.34375 -19.972656 25.90625 -21.390625 C 24.476562 -22.804688 22.722656 -23.515625 20.640625 -23.515625 C 18.515625 -23.515625 16.734375 -22.804688 15.296875 -21.390625 Z M 15.296875 -21.390625 "/></g></g></g><g fill="#737373" fill-opacity="1"><g transform="translate(93.760135, 54.109898)"><g><path d="M 15.15625 -41.40625 L 27.8125 -52.375 L 33.484375 -45.203125 L 18.640625 -36.609375 Z M 36.109375 -14.46875 L 12.90625 -14.46875 C 12.90625 -12.21875 13.632812 -10.550781 15.09375 -9.46875 C 16.550781 -8.394531 18.128906 -7.859375 19.828125 -7.859375 C 21.617188 -7.859375 23.03125 -8.097656 24.0625 -8.578125 C 25.101562 -9.054688 26.289062 -10 27.625 -11.40625 L 35.609375 -7.421875 C 32.285156 -1.847656 26.753906 0.9375 19.015625 0.9375 C 14.191406 0.9375 10.054688 -0.710938 6.609375 -4.015625 C 3.160156 -7.328125 1.4375 -11.3125 1.4375 -15.96875 C 1.4375 -20.625 3.160156 -24.613281 6.609375 -27.9375 C 10.054688 -31.257812 14.191406 -32.921875 19.015625 -32.921875 C 24.085938 -32.921875 28.210938 -31.457031 31.390625 -28.53125 C 34.578125 -25.601562 36.171875 -21.414062 36.171875 -15.96875 C 36.171875 -15.21875 36.148438 -14.71875 36.109375 -14.46875 Z M 13.21875 -20.578125 L 25.375 -20.578125 C 25.125 -22.242188 24.46875 -23.519531 23.40625 -24.40625 C 22.351562 -25.300781 20.992188 -25.75 19.328125 -25.75 C 17.503906 -25.75 16.050781 -25.269531 14.96875 -24.3125 C 13.882812 -23.363281 13.300781 -22.117188 13.21875 -20.578125 Z M 13.21875 -20.578125 "/></g></g></g><g fill="#737373" fill-opacity="1"><g transform="translate(128.234135, 54.109898)"><g><path d="M 3.734375 0 L 3.734375 -31.984375 L 14.78125 -31.984375 L 14.78125 -28.625 L 14.90625 -28.625 C 17.769531 -31.488281 20.828125 -32.921875 24.078125 -32.921875 C 25.648438 -32.921875 27.21875 -32.710938 28.78125 -32.296875 C 30.34375 -31.878906 31.835938 -31.234375 33.265625 -30.359375 C 34.703125 -29.492188 35.863281 -28.257812 36.75 -26.65625 C 37.644531 -25.050781 38.09375 -23.191406 38.09375 -21.078125 L 38.09375 0 L 27.0625 0 L 27.0625 -18.078125 C 27.0625 -19.742188 26.53125 -21.195312 25.46875 -22.4375 C 24.414062 -23.6875 23.035156 -24.3125 21.328125 -24.3125 C 19.660156 -24.3125 18.148438 -23.664062 16.796875 -22.375 C 15.453125 -21.09375 14.78125 -19.660156 14.78125 -18.078125 L 14.78125 0 Z M 3.734375 0 "/></g></g></g><g fill="#737373" fill-opacity="1"><g transform="translate(166.323983, 54.109898)"><g><path d="M 4.796875 -49.828125 C 6.085938 -51.117188 7.625 -51.765625 9.40625 -51.765625 C 11.195312 -51.765625 12.738281 -51.117188 14.03125 -49.828125 C 15.320312 -48.535156 15.96875 -46.992188 15.96875 -45.203125 C 15.96875 -43.421875 15.320312 -41.882812 14.03125 -40.59375 C 12.738281 -39.300781 11.195312 -38.65625 9.40625 -38.65625 C 7.625 -38.65625 6.085938 -39.300781 4.796875 -40.59375 C 3.515625 -41.882812 2.875 -43.421875 2.875 -45.203125 C 2.875 -46.992188 3.515625 -48.535156 4.796875 -49.828125 Z M 3.734375 -31.984375 L 3.734375 0 L 14.78125 0 L 14.78125 -31.984375 Z M 3.734375 -31.984375 "/></g></g></g><g fill="#737373" fill-opacity="1"><g transform="translate(182.032862, 54.109898)"><g><path d="M 36.109375 -14.46875 L 12.90625 -14.46875 C 12.90625 -12.21875 13.632812 -10.550781 15.09375 -9.46875 C 16.550781 -8.394531 18.128906 -7.859375 19.828125 -7.859375 C 21.617188 -7.859375 23.03125 -8.097656 24.0625 -8.578125 C 25.101562 -9.054688 26.289062 -10 27.625 -11.40625 L 35.609375 -7.421875 C 32.285156 -1.847656 26.753906 0.9375 19.015625 0.9375 C 14.191406 0.9375 10.054688 -0.710938 6.609375 -4.015625 C 3.160156 -7.328125 1.4375 -11.3125 1.4375 -15.96875 C 1.4375 -20.625 3.160156 -24.613281 6.609375 -27.9375 C 10.054688 -31.257812 14.191406 -32.921875 19.015625 -32.921875 C 24.085938 -32.921875 28.210938 -31.457031 31.390625 -28.53125 C 34.578125 -25.601562 36.171875 -21.414062 36.171875 -15.96875 C 36.171875 -15.21875 36.148438 -14.71875 36.109375 -14.46875 Z M 13.21875 -20.578125 L 25.375 -20.578125 C 25.125 -22.242188 24.46875 -23.519531 23.40625 -24.40625 C 22.351562 -25.300781 20.992188 -25.75 19.328125 -25.75 C 17.503906 -25.75 16.050781 -25.269531 14.96875 -24.3125 C 13.882812 -23.363281 13.300781 -22.117188 13.21875 -20.578125 Z M 13.21875 -20.578125 "/></g></g></g><g fill="#737373" fill-opacity="1"><g transform="translate(216.506862, 54.109898)"><g><path d="M 3.734375 0 L 3.734375 -31.984375 L 14.78125 -31.984375 L 14.78125 -27.375 L 14.90625 -27.375 C 14.988281 -27.539062 15.125 -27.75 15.3125 -28 C 15.5 -28.25 15.898438 -28.6875 16.515625 -29.3125 C 17.140625 -29.9375 17.804688 -30.492188 18.515625 -30.984375 C 19.222656 -31.484375 20.140625 -31.929688 21.265625 -32.328125 C 22.390625 -32.722656 23.53125 -32.921875 24.6875 -32.921875 C 25.894531 -32.921875 27.082031 -32.753906 28.25 -32.421875 C 29.414062 -32.085938 30.269531 -31.753906 30.8125 -31.421875 L 31.671875 -30.9375 L 27.0625 -21.578125 C 25.6875 -22.742188 23.773438 -23.328125 21.328125 -23.328125 C 19.992188 -23.328125 18.847656 -23.035156 17.890625 -22.453125 C 16.941406 -21.867188 16.269531 -21.160156 15.875 -20.328125 C 15.476562 -19.492188 15.195312 -18.785156 15.03125 -18.203125 C 14.863281 -17.617188 14.78125 -17.164062 14.78125 -16.84375 L 14.78125 0 Z M 3.734375 0 "/></g></g></g><g fill="#737373" fill-opacity="1"><g transform="translate(244.434877, 54.109898)"><g><path d="M 4.796875 -49.828125 C 6.085938 -51.117188 7.625 -51.765625 9.40625 -51.765625 C 11.195312 -51.765625 12.738281 -51.117188 14.03125 -49.828125 C 15.320312 -48.535156 15.96875 -46.992188 15.96875 -45.203125 C 15.96875 -43.421875 15.320312 -41.882812 14.03125 -40.59375 C 12.738281 -39.300781 11.195312 -38.65625 9.40625 -38.65625 C 7.625 -38.65625 6.085938 -39.300781 4.796875 -40.59375 C 3.515625 -41.882812 2.875 -43.421875 2.875 -45.203125 C 2.875 -46.992188 3.515625 -48.535156 4.796875 -49.828125 Z M 3.734375 -31.984375 L 3.734375 0 L 14.78125 0 L 14.78125 -31.984375 Z M 3.734375 -31.984375 "/></g></g></g><g fill="#737373" fill-opacity="1"><g transform="translate(260.143755, 54.109898)"><g><path d="M 36.109375 -14.46875 L 12.90625 -14.46875 C 12.90625 -12.21875 13.632812 -10.550781 15.09375 -9.46875 C 16.550781 -8.394531 18.128906 -7.859375 19.828125 -7.859375 C 21.617188 -7.859375 23.03125 -8.097656 24.0625 -8.578125 C 25.101562 -9.054688 26.289062 -10 27.625 -11.40625 L 35.609375 -7.421875 C 32.285156 -1.847656 26.753906 0.9375 19.015625 0.9375 C 14.191406 0.9375 10.054688 -0.710938 6.609375 -4.015625 C 3.160156 -7.328125 1.4375 -11.3125 1.4375 -15.96875 C 1.4375 -20.625 3.160156 -24.613281 6.609375 -27.9375 C 10.054688 -31.257812 14.191406 -32.921875 19.015625 -32.921875 C 24.085938 -32.921875 28.210938 -31.457031 31.390625 -28.53125 C 34.578125 -25.601562 36.171875 -21.414062 36.171875 -15.96875 C 36.171875 -15.21875 36.148438 -14.71875 36.109375 -14.46875 Z M 13.21875 -20.578125 L 25.375 -20.578125 C 25.125 -22.242188 24.46875 -23.519531 23.40625 -24.40625 C 22.351562 -25.300781 20.992188 -25.75 19.328125 -25.75 C 17.503906 -25.75 16.050781 -25.269531 14.96875 -24.3125 C 13.882812 -23.363281 13.300781 -22.117188 13.21875 -20.578125 Z M 13.21875 -20.578125 "/></g></g></g></g></g></svg>